# AST/ASF file generated using VICON BodyLanguage
# -----------------------------------------------
:version 1.10
:name VICON
:units
  mass 1.0
  length 0.45
  angle deg
:documentation
   .ast/.asf automatically generated from VICON data using
   VICON BodyBuilder and BodyLanguage model FoxedUp or BRILLIANT.MOD
:root
   order TX TY TZ RX RY RZ
   axis XYZ
   position 0 0 0  
   orientation 0 0 0 
:bonedata
  begin
     id 1 
     name lhipjoint
     direction 0.64773 -0.699417 0.302095 
     length 2.48597 
     axis 0 0 0  XYZ
  end
  begin
     id 2 
     name lfemur
     direction 0.34202 -0.939693 0  
     length 6.71947  
     axis 0 0 20  XYZ
    dof rx ry rz
    limits (-160.0 20.0)
           (-70.0 70.0)
           (-60.0 70.0)
  end
  begin
     id 3 
     name ltibia
     direction 0.34202 -0.939693 0   
     length 8.08777   
     axis 0 0 20   XYZ
    dof rx
    limits (-10.0 170.0)
  end
  begin
     id 4 
     name lfoot
     direction 0.0808503 -0.222134 0.971658   
     length 2.08264   
     axis -90 7.62852e-016 20   XYZ
    dof rx rz
    limits (-45.0 90.0)
           (-70.0 20.0)
  end
  begin
     id 5 
     name ltoes
     direction 1.53502e-011 -4.22007e-011 1   
     length 1.04662   
     axis -90 7.62852e-016 20   XYZ
    dof rx
    limits (-90.0 20.0)
  end
  begin
     id 6 
     name rhipjoint
     direction -0.610924 -0.726792 0.313919   
     length 2.39233  
     axis 0 0 0  XYZ 
  end
  begin
     id 7 
     name rfemur
     direction -0.34202 -0.939693 0   
     length 6.96955   
     axis 0 0 -20   XYZ
    dof rx ry rz
    limits (-160.0 20.0)
           (-70.0 70.0)
           (-70.0 60.0)
  end
  begin
     id 8 
     name rtibia
     direction -0.34202 -0.939693 0   
     length 8.19584   
     axis 0 0 -20   XYZ
    dof rx
    limits (-10.0 170.0)
 end
 begin
     id 9 
     name rfoot
     direction -0.077777 -0.213691 0.9738   
     length 2.07539  
     axis -90 -7.62852e-016 -20   XYZ
    dof rx rz
    limits (-45.0 90.0)
           (-20.0 70.0)
  end
  begin
     id 10 
     name rtoes
     direction -1.53558e-011 -4.22006e-011 1   
     length 1.04381   
     axis -90 -7.62852e-016 -20   XYZ
    dof rx
    limits (-90.0 20.0)
  end
  begin
     id 11 
     name lowerback
     direction -0.00971646 0.996074 0.0879841   
     length 1.67643   
     axis 0 0 0   XYZ
    dof rx ry rz
    limits (-20.0 45.0)
           (-30.0 30.0)
           (-30.0 30.0)
  end
  begin
     id 12 
     name upperback
     direction 0.0127391 0.991676 0.128127   
     length 1.63741   
     axis 0 0 0   XYZ
    dof rx ry rz
    limits (-20.0 45.0)
           (-30.0 30.0)
           (-30.0 30.0)
  end
  begin
     id 13 
     name thorax
     direction 0.0167583 0.996049 0.0872067   
     length 1.65931   
     axis 0 0 0   XYZ
    dof rx ry rz
    limits (-20.0 45.0)
           (-30.0 30.0)
           (-30.0 30.0)
  end
  begin
     id 14 
     name lowerneck
     direction -0.0317829 0.998312 0.0486079   
     length 1.79021   
     axis 0 0 0   XYZ
    dof rx ry rz
    limits (-20.0 45.0)
           (-30.0 30.0)
           (-30.0 30.0)
  end
  begin
     id 15 
     name upperneck
     direction 0.0896851 0.972452 -0.215159   
     length 1.78797   
     axis 0 0 0   XYZ
    dof rx ry rz
    limits (-20.0 45.0)
           (-30.0 30.0)
           (-30.0 30.0)
  end
  begin
     id 16
     name head
     direction 0.0310949 0.996503 -0.0775582  
     length 1.81549  
     axis 0 0 0   XYZ
    dof rx ry rz
    limits (-20.0 45.0)
           (-30.0 30.0)
           (-30.0 30.0)
  end
  begin
     id 17 
     name lclavicle
     direction 0.853638 0.502051 -0.138733  
     length 3.31627  
     axis 0 0 0   XYZ
    dof ry rz
    limits (-20.0 10.0)
           (0.0 20.0)
  end
  begin
     id 18 
     name lhumerus
     direction 1 -4.48962e-011 -1.41788e-018   
     length 5.54893   
     axis 180 -30 -90   XYZ
    dof rx ry rz
    limits (-60.0 90.0)
           (-90.0 90.0)
           (-90.0 90.0)
  end
  begin
     id 19
     name lradius
     direction 1 -4.48962e-011 -4.95754e-027   
     length 3.02898   
     axis 180 -30 -90   XYZ
    dof rx
    limits (-10.0 170.0)
  end
  begin
     id 20
     name lwrist
     direction 1 -4.48952e-011 -1.03764e-026   
     length 1.51449   
     axis 9.09556e-015 90 90   XYZ
    dof ry
    limits (-180.0 0.0)
 end
  begin
     id 21 
     name lhand
     direction 1 -4.4902e-011 -2.07528e-026   
     length 0.640951   
     axis 1.3242e-014 90 90   XYZ
    dof rx rz
    limits (-90.0 90.0)
           (-45.0 45.0)
  end
  begin
     id 22 
     name lfingers
     direction 1 -4.49014e-011 -4.15056e-026   
     length 0.516751   
     axis 2.64841e-014 90 90   XYZ
    dof rx
    limits (0.0 90.0)
  end
  begin
     id 23
     name lthumb
     direction 0.707107 -6.35008e-011 0.707107   
     length 0.741954   
     axis -90 45 2.85299e-015   XYZ
    dof rx rz
    limits (-45.0 45.0)
           (-45.0 45.0)
  end
  begin
     id 24 
     name rclavicle
     direction -0.888531 0.455324 -0.0565039   
     length 3.20126  
     axis 0 0 0   XYZ 
    dof ry rz
    limits (-10.0 20.0)
           (-20.0 0.0)
  end
  begin
     id 25 
     name rhumerus
     direction -1 -4.48946e-011 -8.98298e-028  
     length 5.3519   
     axis 180 30 90   XYZ
    dof rx ry rz
    limits (-90.0 60.0)
           (-90.0 90.0)
           (-90.0 90.0)
  end
  begin
     id 26 
     name rradius
     direction -1 -4.4899e-011 -3.18779e-027   
     length 3.02531   
     axis 180 30 90   XYZ
    dof rx
    limits (-10.0 170.0)
  end
  begin
     id 27 
     name rwrist
     direction -1 -4.4897e-011 -1.03764e-026   
     length 1.51266   
     axis 9.09556e-015 -90 -90   XYZ
    dof ry
    limits (-180.0 0.0)
  end
  begin
     id 28
     name rhand
     direction -1 -4.48941e-011 -2.07528e-026   
     length 0.78389   
     axis 1.3242e-014 -90 -90   XYZ
    dof rx rz
    limits (-90.0 90.0)
           (-45.0 45.0)
  end
  begin
     id 29
     name rfingers
     direction -1 -4.49012e-011 -4.15056e-026   
     length 0.631992   
     axis 2.64841e-014 -90 -90   XYZ
    dof rx
    limits (0.0 90.0)
  end
  begin
     id 30
     name rthumb
     direction -0.707107 -6.3496e-011 0.707107   
     length 0.907418   
     axis -90 -45 -2.85299e-015   XYZ
    dof rx rz
    limits (-45.0 45.0)
           (-45.0 45.0)
  end
:hierarchy
  begin
    root lhipjoint rhipjoint lowerback
    lhipjoint lfemur
    lfemur ltibia
    ltibia lfoot
    lfoot ltoes
    rhipjoint rfemur
    rfemur rtibia
    rtibia rfoot
    rfoot rtoes
    lowerback upperback
    upperback thorax
    thorax lowerneck lclavicle rclavicle
    lowerneck upperneck
    upperneck head
    lclavicle lhumerus
    lhumerus lradius
    lradius lwrist
    lwrist lhand lthumb
    lhand lfingers
    rclavicle rhumerus
    rhumerus rradius
    rradius rwrist
    rwrist rhand rthumb
    rhand rfingers
  end

#!OML:ASF E:\Style3\Style3.ASF
:FULLY-SPECIFIED
:DEGREES
1297
root 0.169095 17.8039 0.370722 12.4635 116.562 -0.825466
lowerback -10.0613 -1.68479 -1.49509
upperback -10.4001 -1.35452 0.932249
thorax -5.20113 -0.216538 1.70764
lowerneck -11.7173 -4.2741 -6.40046
upperneck 20.5042 -6.12003 8.49336
head 8.7909 -2.36481 3.29197
rclavicle -4.96962e-015 7.7526e-015
rhumerus -360.625 38.7084 -406.233
rradius 114.482
rwrist -14.0617
rhand -8.97856 15.7762
rfingers 7.12502
rthumb 16.9671 -13.5028
lclavicle -4.96962e-015 7.7526e-015
lhumerus -18.7417 -19.6401 49.7623
lradius 121.892
lwrist 52.7213
lhand -23.5856 34.1093
lfingers 7.12502
lthumb 2.87759 64.0696
rfemur -8.71872 2.08594 21.6496
rtibia 13.6032
rfoot -20.1942 -35.5392
rtoes -3.15773
lfemur -15.2262 -18.9992 -12.7734
ltibia 8.21892
lfoot -6.83249 2.55885
ltoes -25.5495
1298
root 0.164652 17.8064 0.368342 12.4824 116.093 -0.936773
lowerback -10.184 -1.84432 -1.61679
upperback -10.4445 -1.54949 1.10462
thorax -5.16682 -0.29849 1.94334
lowerneck -11.5561 -4.1082 -6.7146
upperneck 20.202 -5.84661 8.59332
head 8.64753 -2.26604 3.40806
rclavicle -1.27222e-014 -8.94531e-015
rhumerus -360.027 39.2179 -406.129
rradius 114.351
rwrist -15.1217
rhand -8.94042 15.6343
rfingers 7.12502
rthumb 17.0038 -13.6415
lclavicle -1.27222e-014 -8.94531e-015
lhumerus -19.3153 -19.1831 50.1197
lradius 122.1
lwrist 52.5463
lhand -22.9249 33.6242
lfingers 7.12502
lthumb 3.5156 63.5749
rfemur -8.9326 2.20292 21.4922
rtibia 13.603
rfoot -19.2727 -35.4492
rtoes -4.4838
lfemur -15.2857 -18.7228 -12.9179
ltibia 8.28759
lfoot -6.84401 2.71421
ltoes -25.9981
1299
root 0.163025 17.8085 0.363021 12.4381 115.673 -0.997513
lowerback -10.242 -1.93763 -1.70614
upperback -10.4341 -1.66843 1.21354
thorax -5.113 -0.3508 2.09935
lowerneck -11.4217 -4.01194 -6.92093
upperneck 19.8592 -5.68695 8.67625
head 8.50137 -2.21319 3.48504
rclavicle 2.45002e-014 7.15625e-015
rhumerus -359.705 39.5046 -406.336
rradius 114.262
rwrist -16.3158
rhand -8.5387 15.472
rfingers 7.12502
rthumb 17.3904 -13.7701
lclavicle 2.45002e-014 7.15625e-015
lhumerus -19.6421 -18.8148 50.514
lradius 122.15
lwrist 52.5476
lhand -22.3512 32.9629
lfingers 7.12502
lthumb 4.06964 62.9038
rfemur -8.96537 2.40023 21.3675
rtibia 13.5846
rfoot -18.945 -35.4165
rtoes -4.63422
lfemur -15.2 -18.5042 -13.0712
ltibia 8.33578
lfoot -6.9031 2.91388
ltoes -26.1462
1300
root 0.165101 17.8106 0.352435 12.5322 115.234 -0.903909
lowerback -10.4111 -1.92965 -1.63664
upperback -10.381 -1.66418 1.2354
thorax -4.96413 -0.356999 2.07956
lowerneck -11.34 -3.98958 -6.97942
upperneck 19.5565 -5.64987 8.71851
head 8.38408 -2.20745 3.5089
rclavicle -9.79014e-015 -1.98785e-014
rhumerus -359.631 39.7074 -406.733
rradius 114.191
rwrist -17.5899
rhand -8.0967 14.854
rfingers 7.12502
rthumb 17.8158 -14.3499
lclavicle -9.79014e-015 -1.98785e-014
lhumerus -19.7337 -18.6276 50.94
lradius 122.06
lwrist 52.6908
lhand -21.4614 31.9133
lfingers 7.12502
lthumb 4.92889 61.8359
rfemur -8.9798 2.53024 21.2861
rtibia 13.5655
rfoot -18.7217 -35.1792
rtoes -5.05826
lfemur -15.0388 -18.2571 -13.1791
ltibia 8.3328
lfoot -6.96222 3.10935
ltoes -26.1451
1301
root 0.164269 17.8132 0.343933 12.7277 114.768 -0.730049
lowerback -10.5477 -1.98956 -1.63045
upperback -10.3626 -1.74107 1.37109
thorax -4.8623 -0.393413 2.21026
lowerneck -11.2618 -3.88787 -6.97351
upperneck 19.3148 -5.47731 8.56144
head 8.26877 -2.15163 3.47002
rclavicle -5.26779e-015 -8.94531e-015
rhumerus -359.262 39.9962 -406.836
rradius 114.189
rwrist -19.1368
rhand -7.62643 14.0993
rfingers 7.12502
rthumb 18.2683 -15.0629
lclavicle -5.26779e-015 -8.94531e-015
lhumerus -20.0571 -18.4011 51.5225
lradius 121.979
lwrist 52.7132
lhand -20.7703 30.88
lfingers 7.12502
lthumb 5.59614 60.7861
rfemur -9.01358 2.61885 21.253
rtibia 13.5203
rfoot -18.7887 -34.8088
rtoes -5.08429
lfemur -14.9238 -17.9663 -13.2328
ltibia 8.31317
lfoot -7.05854 3.27706
ltoes -25.7162
1302
root 0.15882 17.8157 0.340068 13.0391 114.316 -0.458387
lowerback -10.5832 -2.01274 -1.58032
upperback -10.4113 -1.76902 1.4546
thorax -4.89354 -0.405216 2.26768
lowerneck -11.1411 -3.82597 -7.03657
upperneck 19.0947 -5.39251 8.62938
head 8.16929 -2.11844 3.51074
rclavicle 3.07619e-014 1.74931e-014
rhumerus -359.081 40.2324 -406.902
rradius 114.31
rwrist -20.9819
rhand -7.40753 13.3444
rfingers 7.12502
rthumb 18.4788 -15.798
lclavicle 3.07619e-014 1.74931e-014
lhumerus -20.3793 -18.4849 52.1919
lradius 121.92
lwrist 52.5541
lhand -20.1499 29.8876
lfingers 7.12502
lthumb 6.19513 59.777
rfemur -9.103 2.8385 21.2716
rtibia 13.4733
rfoot -18.7173 -34.584
rtoes -5.05534
lfemur -14.9024 -17.6695 -13.2048
ltibia 8.31275
lfoot -7.12344 3.44286
ltoes -25.1314
1303
root 0.153725 17.816 0.335479 12.9034 113.858 -0.650783
lowerback -10.5629 -1.91042 -1.61901
upperback -10.4574 -1.63405 1.28179
thorax -4.96498 -0.339693 2.11803
lowerneck -11.0152 -3.89355 -6.91621
upperneck 18.8437 -5.53198 8.76142
head 8.07528 -2.17088 3.51714
rclavicle 5.06901e-014 2.42517e-014
rhumerus -359.481 40.1566 -407.538
rradius 114.357
rwrist -22.8159
rhand -6.97188 12.7758
rfingers 7.12502
rthumb 18.8979 -16.3262
lclavicle 5.06901e-014 2.42517e-014
lhumerus -20.3839 -19.0102 52.8327
lradius 121.8
lwrist 52.2483
lhand -19.3376 28.8228
lfingers 7.12502
lthumb 6.97927 58.6877
rfemur -9.22139 3.02148 21.062
rtibia 13.4578
rfoot -18.3055 -34.503
rtoes -5.59367
lfemur -14.8281 -17.4208 -13.4059
ltibia 8.30064
lfoot -7.17932 3.62735
ltoes -24.8148
1304
root 0.148779 17.8158 0.327084 12.8077 113.395 -0.733811
lowerback -10.551 -1.71705 -1.59762
upperback -10.4704 -1.38462 1.09124
thorax -5.00245 -0.223018 1.92257
lowerneck -10.6626 -3.99454 -6.81641
upperneck 18.2931 -5.71649 8.93519
head 7.8472 -2.25484 3.53452
rclavicle -1.02871e-014 -1.27222e-014
rhumerus -360.033 39.9754 -408.332
rradius 114.281
rwrist -24.8259
rhand -6.55817 12.3915
rfingers 7.12502
rthumb 19.2957 -16.6712
lclavicle -1.02871e-014 -1.27222e-014
lhumerus -20.226 -19.796 53.7025
lradius 121.663
lwrist 51.6563
lhand -19.093 28.4945
lfingers 7.12502
lthumb 7.21543 58.3515
rfemur -9.2991 3.0921 20.8985
rtibia 13.4837
rfoot -17.8612 -34.3324
rtoes -6.48689
lfemur -14.6585 -17.1636 -13.5815
ltibia 8.24341
lfoot -7.1861 3.78624
ltoes -24.649
1305
root 0.144209 17.8158 0.319026 12.8854 112.96 -0.608484
lowerback -10.5118 -1.62352 -1.57632
upperback -10.4892 -1.26399 1.07112
thorax -5.05077 -0.164448 1.89786
lowerneck -10.4202 -4.00596 -6.86361
upperneck 17.9362 -5.73967 9.04213
head 7.69247 -2.27371 3.57357
rclavicle -6.55989e-015 -1.25234e-014
rhumerus -360.372 40.1152 -408.961
rradius 114.211
rwrist -26.8423
rhand -6.21072 12.1524
rfingers 7.12502
rthumb 19.6298 -16.8765
lclavicle -6.55989e-015 -1.25234e-014
lhumerus -20.3765 -20.5358 54.812
lradius 121.517
lwrist 50.8023
lhand -19.2259 28.1425
lfingers 7.12502
lthumb 7.08705 58.0039
rfemur -9.32969 3.18021 20.8461
rtibia 13.5322
rfoot -17.7142 -34.0689
rtoes -7.04343
lfemur -14.475 -16.9122 -13.6559
ltibia 8.14164
lfoot -7.14437 3.92482
ltoes -24.9504
